<svg xmlns="http://www.w3.org/2000/svg" xmlns:xlink="http://www.w3.org/1999/xlink" width="375" viewBox="0 0 375 375" height="375" version="1.0"><defs><g id="a"><path d="M 0.3125 0 L 0.3125 -3.15625 L 10.40625 -3.15625 C 16.914062 -3.15625 22.0625 -4.941406 25.84375 -8.515625 C 29.632812 -12.085938 33.101562 -18.390625 36.25 -27.421875 L 106.234375 -225.078125 L 126.40625 -225.078125 L 203.015625 -21.4375 C 205.742188 -14.5 208.578125 -9.71875 211.515625 -7.09375 C 214.460938 -4.46875 218.351562 -3.15625 223.1875 -3.15625 L 226.34375 -3.15625 L 226.34375 0 L 134.921875 0 L 134.921875 -3.15625 L 145.015625 -3.15625 C 152.148438 -3.15625 157.296875 -4.046875 160.453125 -5.828125 C 163.609375 -7.617188 165.1875 -10.828125 165.1875 -15.453125 C 165.1875 -17.128906 164.972656 -19.175781 164.546875 -21.59375 C 164.128906 -24.007812 163.394531 -26.6875 162.34375 -29.625 L 143.4375 -81.96875 L 59.265625 -81.96875 L 41.609375 -32.46875 C 40.554688 -29.3125 39.710938 -26.523438 39.078125 -24.109375 C 38.453125 -21.691406 38.140625 -19.4375 38.140625 -17.34375 C 38.140625 -12.082031 40.289062 -8.398438 44.59375 -6.296875 C 48.90625 -4.203125 55.894531 -3.15625 65.5625 -3.15625 L 76.921875 -3.15625 L 76.921875 0 Z M 60.203125 -85.109375 L 142.171875 -85.109375 L 120.109375 -145.640625 C 116.535156 -155.515625 113.066406 -165.441406 109.703125 -175.421875 C 106.335938 -185.410156 103.601562 -194.609375 101.5 -203.015625 C 98.5625 -194.179688 95.671875 -185.769531 92.828125 -177.78125 C 89.992188 -169.800781 86.789062 -160.660156 83.21875 -150.359375 Z M 60.203125 -85.109375"/></g><g id="b"><path d="M 136 -23 C 132.789062 -23.363281 129.5625 -23.546875 126.3125 -23.546875 C 124.882812 -23.597656 123.429688 -23.640625 121.953125 -23.671875 C 108.515625 -24.222656 95.046875 -24.367188 81.546875 -24.109375 C 80.878906 -24.109375 80.328125 -24.109375 79.890625 -24.109375 C 79.148438 -24.160156 78.613281 -24.15625 78.28125 -24.09375 C 77.945312 -24.03125 77.675781 -23.84375 77.46875 -23.53125 C 77.269531 -23.226562 77.035156 -22.722656 76.765625 -22.015625 C 76.578125 -21.609375 76.359375 -21.101562 76.109375 -20.5 C 73.867188 -15.601562 71.804688 -10.625 69.921875 -5.5625 C 68.703125 -2.289062 67.753906 1.0625 67.078125 4.5 C 66.828125 5.570312 66.738281 6.613281 66.8125 7.625 C 66.894531 8.644531 67.351562 9.554688 68.1875 10.359375 C 68.300781 10.453125 68.34375 10.5625 68.3125 10.6875 C 68.28125 10.8125 68.203125 10.925781 68.078125 11.03125 C 67.960938 11.144531 67.835938 11.21875 67.703125 11.25 C 65.710938 11.550781 64.515625 10.835938 64.109375 9.109375 C 63.878906 8.140625 63.835938 7.140625 63.984375 6.109375 C 63.984375 6.023438 63.984375 5.96875 63.984375 5.9375 C 64.140625 4.175781 64.453125 2.425781 64.921875 0.6875 C 65.398438 -1.039062 65.9375 -2.78125 66.53125 -4.53125 C 68.425781 -9.757812 70.515625 -14.925781 72.796875 -20.03125 C 72.910156 -20.25 73 -20.46875 73.0625 -20.6875 C 73.1875 -20.9375 73.316406 -21.195312 73.453125 -21.46875 C 73.628906 -21.832031 73.789062 -22.195312 73.9375 -22.5625 C 74.09375 -22.9375 74.15625 -23.328125 74.125 -23.734375 C 73.9375 -23.878906 73.75 -23.96875 73.5625 -24 C 73.382812 -24.03125 73.203125 -24.03125 73.015625 -24 C 72.984375 -24 72.941406 -24 72.890625 -24 C 71.316406 -24 69.734375 -23.984375 68.140625 -23.953125 C 67.703125 -23.953125 67.238281 -23.953125 66.75 -23.953125 C 66.164062 -23.921875 65.671875 -23.734375 65.265625 -23.390625 C 64.867188 -23.054688 64.484375 -22.648438 64.109375 -22.171875 C 63.617188 -21.546875 63.132812 -20.925781 62.65625 -20.3125 C 60.59375 -17.675781 58.507812 -15.066406 56.40625 -12.484375 C 53.300781 -8.722656 50.0625 -5.097656 46.6875 -1.609375 C 43.3125 1.878906 39.726562 5.148438 35.9375 8.203125 C 31.164062 12.128906 26.109375 15.582031 20.765625 18.5625 C 12.578125 22.957031 3.992188 25.039062 -4.984375 24.8125 C -13.429688 24.625 -21.054688 22.34375 -27.859375 17.96875 C -29.765625 16.738281 -31.457031 15.257812 -32.9375 13.53125 C -33.925781 12.3125 -34.707031 10.992188 -35.28125 9.578125 C -35.863281 8.160156 -36.15625 6.617188 -36.15625 4.953125 C -36.070312 2.960938 -35.613281 1.117188 -34.78125 -0.578125 C -33.957031 -2.285156 -32.804688 -3.835938 -31.328125 -5.234375 C -29.296875 -7.191406 -27.066406 -8.851562 -24.640625 -10.21875 C -22.265625 -11.59375 -19.820312 -12.796875 -17.3125 -13.828125 C -14.8125 -14.859375 -12.285156 -15.773438 -9.734375 -16.578125 C -5.609375 -17.898438 -1.441406 -19.015625 2.765625 -19.921875 C 6.972656 -20.828125 11.203125 -21.601562 15.453125 -22.25 C 25.515625 -23.632812 35.601562 -24.554688 45.71875 -25.015625 C 50.882812 -25.328125 56.035156 -25.484375 61.171875 -25.484375 C 62.578125 -25.453125 63.664062 -26.050781 64.4375 -27.28125 C 65.800781 -29.1875 67.171875 -31.101562 68.546875 -33.03125 C 70.671875 -35.988281 72.765625 -38.992188 74.828125 -42.046875 C 84.421875 -56.367188 93.613281 -70.925781 102.40625 -85.71875 C 103.144531 -86.976562 103.867188 -88.253906 104.578125 -89.546875 C 104.910156 -90.203125 105.257812 -90.863281 105.625 -91.53125 C 106.0625 -92.394531 106.757812 -92.875 107.71875 -92.96875 C 108.238281 -92.96875 108.617188 -92.820312 108.859375 -92.53125 C 109.109375 -92.238281 109.140625 -91.847656 108.953125 -91.359375 C 108.765625 -90.960938 108.554688 -90.578125 108.328125 -90.203125 C 106.898438 -87.648438 105.628906 -85.066406 104.515625 -82.453125 C 104.097656 -81.535156 103.6875 -80.628906 103.28125 -79.734375 C 99.414062 -71.328125 95.523438 -62.914062 91.609375 -54.5 C 88.628906 -48.007812 85.617188 -41.5 82.578125 -34.96875 C 81.703125 -33.039062 80.835938 -31.125 79.984375 -29.21875 C 79.804688 -28.8125 79.625 -28.425781 79.4375 -28.0625 C 79.40625 -27.96875 79.367188 -27.875 79.328125 -27.78125 C 79.210938 -27.507812 79.117188 -27.242188 79.046875 -26.984375 C 78.972656 -26.722656 78.992188 -26.46875 79.109375 -26.21875 C 79.359375 -26.03125 79.648438 -25.925781 79.984375 -25.90625 C 80.328125 -25.894531 80.640625 -25.890625 80.921875 -25.890625 C 81.148438 -25.921875 81.359375 -25.9375 81.546875 -25.9375 C 82.941406 -25.90625 84.34375 -25.90625 85.75 -25.9375 C 87.664062 -25.9375 89.585938 -25.921875 91.515625 -25.890625 C 101.984375 -25.703125 112.457031 -25.476562 122.9375 -25.21875 C 126.375 -25.144531 129.789062 -25 133.1875 -24.78125 C 133.488281 -24.75 133.804688 -24.734375 134.140625 -24.734375 C 134.316406 -24.734375 134.515625 -24.734375 134.734375 -24.734375 C 135.171875 -24.734375 135.59375 -24.691406 136 -24.609375 C 136.414062 -24.535156 136.8125 -24.394531 137.1875 -24.1875 C 137.25 -24.132812 137.296875 -24.050781 137.328125 -23.9375 C 137.367188 -23.832031 137.367188 -23.742188 137.328125 -23.671875 C 137.328125 -23.554688 137.28125 -23.453125 137.1875 -23.359375 C 137.101562 -23.265625 137.023438 -23.203125 136.953125 -23.171875 C 136.648438 -23.054688 136.332031 -23 136 -23 Z M 60.984375 -22.71875 C 61.109375 -22.957031 61.125 -23.164062 61.03125 -23.34375 C 60.9375 -23.53125 60.78125 -23.625 60.5625 -23.625 C 60.226562 -23.65625 59.875 -23.65625 59.5 -23.625 C 59.320312 -23.625 59.140625 -23.625 58.953125 -23.625 C 46.285156 -23.476562 33.613281 -22.609375 20.9375 -21.015625 C 16.082031 -20.421875 11.253906 -19.644531 6.453125 -18.6875 C 1.660156 -17.738281 -3.085938 -16.539062 -7.796875 -15.09375 C -10.316406 -14.320312 -12.800781 -13.4375 -15.25 -12.4375 C -17.695312 -11.445312 -20.085938 -10.257812 -22.421875 -8.875 C -24.847656 -7.519531 -27.0625 -5.863281 -29.0625 -3.90625 C -31.394531 -1.5 -32.707031 1.054688 -33 3.765625 C -33.289062 6.472656 -32.566406 9.082031 -30.828125 11.59375 C -29.535156 13.351562 -27.988281 14.863281 -26.1875 16.125 C -19.644531 20.769531 -11.851562 23.132812 -2.8125 23.21875 C -0.5 23.21875 2.15625 22.914062 5.15625 22.3125 C 8.144531 21.695312 11.03125 20.789062 13.8125 19.59375 C 16.59375 18.394531 19.296875 16.976562 21.921875 15.34375 C 28.378906 11.375 34.359375 6.742188 39.859375 1.453125 C 43.660156 -2.117188 47.25 -5.878906 50.625 -9.828125 C 54 -13.773438 57.269531 -17.796875 60.4375 -21.890625 C 60.625 -22.191406 60.804688 -22.46875 60.984375 -22.71875 Z M 76.390625 -27.921875 C 78.828125 -33.460938 81.335938 -38.984375 83.921875 -44.484375 C 84.035156 -44.785156 84.421875 -45.648438 85.078125 -47.078125 C 85.742188 -48.515625 86.507812 -50.1875 87.375 -52.09375 C 88.238281 -54 89.03125 -55.796875 89.75 -57.484375 C 90.46875 -59.179688 90.972656 -60.453125 91.265625 -61.296875 C 91.566406 -62.148438 91.484375 -62.234375 91.015625 -61.546875 C 90.890625 -61.390625 90.796875 -61.238281 90.734375 -61.09375 C 90.328125 -60.507812 89.941406 -59.921875 89.578125 -59.328125 C 86.503906 -54.566406 83.414062 -49.8125 80.3125 -45.0625 C 77.207031 -40.3125 73.992188 -35.632812 70.671875 -31.03125 C 70.359375 -30.59375 70.035156 -30.128906 69.703125 -29.640625 C 69.054688 -28.765625 68.425781 -27.882812 67.8125 -27 C 67.5625 -26.625 67.488281 -26.316406 67.59375 -26.078125 C 67.707031 -25.835938 67.960938 -25.71875 68.359375 -25.71875 C 69.035156 -25.71875 69.703125 -25.734375 70.359375 -25.765625 C 71.390625 -25.847656 72.421875 -25.890625 73.453125 -25.890625 C 74.234375 -25.859375 74.84375 -26.023438 75.28125 -26.390625 C 75.71875 -26.765625 76.085938 -27.273438 76.390625 -27.921875 Z M 76.390625 -27.921875"/></g><g id="c"><path d="M 12.171875 -12 C 12.734375 -12.550781 13.195312 -12.859375 13.5625 -12.921875 C 13.925781 -12.992188 14.160156 -12.9375 14.265625 -12.75 C 14.378906 -12.570312 14.3125 -12.320312 14.0625 -12 C 12.582031 -10.21875 10.925781 -8.679688 9.09375 -7.390625 C 7.269531 -6.097656 5.390625 -5.351562 3.453125 -5.15625 C 1.515625 -4.957031 0.347656 -6.015625 -0.046875 -8.328125 C -0.347656 -10.628906 1.039062 -15.3125 4.125 -22.375 C 7.207031 -29.4375 9.648438 -35.222656 11.453125 -39.734375 C 11.597656 -40.128906 11.820312 -40.476562 12.125 -40.78125 C 12.53125 -41.1875 13.007812 -41.28125 13.5625 -41.0625 C 13.75 -40.976562 13.929688 -40.84375 14.109375 -40.65625 C 14.296875 -40.476562 14.359375 -40.15625 14.296875 -39.6875 C 6.359375 -20.863281 2.515625 -10.628906 2.765625 -8.984375 C 3.015625 -7.335938 4.070312 -6.929688 5.9375 -7.765625 C 7.8125 -8.597656 9.253906 -9.441406 10.265625 -10.296875 C 11.285156 -11.160156 11.921875 -11.726562 12.171875 -12 Z M 12.171875 -12"/></g><g id="d"><path d="M 14.34375 -9.65625 C 13.375 -8.707031 12.242188 -7.890625 10.953125 -7.203125 C 9.660156 -6.523438 8.578125 -6.082031 7.703125 -5.875 C 6.828125 -5.664062 5.925781 -5.546875 5 -5.515625 C 3.53125 -5.441406 2.175781 -5.640625 0.9375 -6.109375 C -1.09375 -6.929688 -1.800781 -8.5 -1.1875 -10.8125 C -0.59375 -12.8125 0.597656 -14.375 2.390625 -15.5 C 4.179688 -16.625 6.035156 -17.171875 7.953125 -17.140625 C 7.953125 -17.140625 7.96875 -17.140625 8 -17.140625 C 8.488281 -17.171875 8.953125 -17.132812 9.390625 -17.03125 C 10.128906 -16.757812 10.597656 -16.320312 10.796875 -15.71875 C 10.992188 -15.113281 10.859375 -14.445312 10.390625 -13.71875 C 9.316406 -12.082031 7.859375 -11.175781 6.015625 -11 C 4.785156 -10.875 3.601562 -10.929688 2.46875 -11.171875 C 2.25 -11.203125 2.054688 -11.140625 1.890625 -10.984375 C 1.722656 -10.835938 1.617188 -10.65625 1.578125 -10.4375 C 1.242188 -9 1.691406 -8.078125 2.921875 -7.671875 C 4.429688 -7.148438 6 -7.148438 7.625 -7.671875 C 9.5 -8.265625 11.285156 -9.375 12.984375 -11 C 14.679688 -12.625 15.660156 -13.378906 15.921875 -13.265625 C 16.179688 -13.160156 16.257812 -12.847656 16.15625 -12.328125 C 15.914062 -11.503906 15.3125 -10.613281 14.34375 -9.65625 Z M 3.625 -13.71875 C 3.519531 -13.59375 3.445312 -13.457031 3.40625 -13.3125 C 3.363281 -13.175781 3.421875 -13.050781 3.578125 -12.9375 C 4.160156 -12.601562 4.796875 -12.476562 5.484375 -12.5625 C 6.171875 -12.65625 6.753906 -12.914062 7.234375 -13.34375 C 7.710938 -13.769531 7.914062 -14.296875 7.84375 -14.921875 C 7.800781 -15.140625 7.6875 -15.273438 7.5 -15.328125 C 7.3125 -15.390625 7.125 -15.40625 6.9375 -15.375 C 5.695312 -15.15625 4.59375 -14.601562 3.625 -13.71875 Z M 3.625 -13.71875"/></g><g id="e"><path d="M 3.375 -7.578125 C 3.1875 -7.753906 2.984375 -7.910156 2.765625 -8.046875 C 2.660156 -8.128906 2.566406 -8.207031 2.484375 -8.28125 C 1.898438 -8.0625 1.40625 -7.734375 1 -7.296875 C 0.78125 -7.023438 0.519531 -6.800781 0.21875 -6.625 C -0.207031 -6.28125 -0.679688 -6.132812 -1.203125 -6.1875 C -1.503906 -6.21875 -1.75 -6.363281 -1.9375 -6.625 C -1.96875 -6.65625 -1.984375 -6.738281 -1.984375 -6.875 C -1.984375 -7.007812 -1.96875 -7.109375 -1.9375 -7.171875 C -1.851562 -7.253906 -1.78125 -7.328125 -1.71875 -7.390625 C -1.28125 -7.984375 -0.800781 -8.523438 -0.28125 -9.015625 C 0.269531 -9.523438 0.617188 -10.054688 0.765625 -10.609375 C 0.921875 -11.171875 0.816406 -11.820312 0.453125 -12.5625 C 0.00390625 -13.613281 -0.347656 -14.734375 -0.609375 -15.921875 C -0.671875 -16.265625 -0.742188 -16.617188 -0.828125 -16.984375 C -0.984375 -17.484375 -0.832031 -17.921875 -0.375 -18.296875 C -0.0390625 -18.523438 0.316406 -18.59375 0.703125 -18.5 C 1.085938 -18.414062 1.359375 -18.203125 1.515625 -17.859375 C 1.734375 -17.191406 1.945312 -16.53125 2.15625 -15.875 C 2.375 -15.269531 2.578125 -14.660156 2.765625 -14.046875 C 3.066406 -13.304688 3.546875 -13.226562 4.203125 -13.8125 C 4.867188 -14.445312 5.554688 -15.09375 6.265625 -15.75 C 7.003906 -16.457031 7.742188 -17.160156 8.484375 -17.859375 C 9.066406 -18.410156 9.691406 -18.90625 10.359375 -19.34375 C 10.765625 -19.613281 11.15625 -19.597656 11.53125 -19.296875 C 11.707031 -19.078125 11.773438 -18.882812 11.734375 -18.71875 C 11.691406 -18.550781 11.601562 -18.394531 11.46875 -18.25 C 9.914062 -16.550781 8.382812 -14.867188 6.875 -13.203125 C 6.5 -12.835938 6.128906 -12.472656 5.765625 -12.109375 C 5.054688 -11.515625 4.664062 -10.992188 4.59375 -10.546875 C 4.519531 -10.109375 4.925781 -9.445312 5.8125 -8.5625 C 6.300781 -8.125 7.0625 -8.078125 8.09375 -8.421875 C 9.125 -8.773438 10.226562 -9.304688 11.40625 -10.015625 C 12.59375 -10.734375 13.664062 -11.429688 14.625 -12.109375 C 15.289062 -12.585938 15.828125 -12.9375 16.234375 -13.15625 C 17.222656 -13.675781 17.800781 -13.726562 17.96875 -13.3125 C 18.132812 -12.90625 17.863281 -12.410156 17.15625 -11.828125 C 16.789062 -11.578125 16.441406 -11.316406 16.109375 -11.046875 C 14.597656 -9.972656 13.085938 -8.90625 11.578125 -7.84375 C 10.804688 -7.332031 9.972656 -6.90625 9.078125 -6.5625 C 8.035156 -6.164062 7.035156 -6.03125 6.078125 -6.15625 C 5.128906 -6.28125 4.226562 -6.753906 3.375 -7.578125 Z M 3.375 -7.578125"/></g><g id="f"><path d="M 18.25 -12.8125 C 18.644531 -12.59375 18.675781 -12.046875 18.34375 -11.171875 C 17.851562 -10.535156 17.332031 -9.941406 16.78125 -9.390625 C 16.226562 -8.835938 15.625 -8.34375 14.96875 -7.90625 C 14.914062 -7.90625 14.890625 -7.882812 14.890625 -7.84375 C 14.453125 -7.539062 13.992188 -7.285156 13.515625 -7.078125 C 9.503906 -5.628906 7.457031 -6.472656 7.375 -9.609375 C 5.75 -8.203125 4.65625 -7.335938 4.09375 -7.015625 C 2.769531 -6.234375 1.335938 -5.882812 -0.203125 -5.96875 C -1.335938 -6.03125 -2.109375 -6.375 -2.515625 -7 C -2.929688 -7.632812 -2.898438 -8.488281 -2.421875 -9.5625 C -1.679688 -11.257812 -0.628906 -12.769531 0.734375 -14.09375 C 2.328125 -15.570312 4.09375 -16.753906 6.03125 -17.640625 C 7.070312 -18.160156 8.164062 -18.363281 9.3125 -18.25 C 10.445312 -18.175781 11.132812 -17.53125 11.375 -16.3125 C 11.476562 -15.9375 11.382812 -15.609375 11.09375 -15.328125 C 10.726562 -14.984375 10.300781 -14.90625 9.8125 -15.09375 C 9.78125 -15.09375 9.734375 -15.097656 9.671875 -15.109375 C 9.617188 -15.128906 9.570312 -15.160156 9.53125 -15.203125 C 9.050781 -15.867188 8.5625 -16.144531 8.0625 -16.03125 C 7.570312 -15.925781 7.046875 -15.707031 6.484375 -15.375 C 3.898438 -13.863281 1.984375 -11.757812 0.734375 -9.0625 C 0.660156 -8.9375 0.613281 -8.800781 0.59375 -8.65625 C 0.582031 -8.519531 0.628906 -8.410156 0.734375 -8.328125 C 1.035156 -8.222656 1.367188 -8.242188 1.734375 -8.390625 C 2.109375 -8.535156 2.476562 -8.742188 2.84375 -9.015625 C 3.207031 -9.296875 3.519531 -9.53125 3.78125 -9.71875 C 3.8125 -9.757812 3.828125 -9.78125 3.828125 -9.78125 C 5.046875 -10.8125 6.242188 -11.863281 7.421875 -12.9375 C 7.941406 -13.488281 8.585938 -13.796875 9.359375 -13.859375 C 10.460938 -13.859375 10.925781 -13.363281 10.75 -12.375 C 10.644531 -12.007812 10.535156 -11.640625 10.421875 -11.265625 C 9.984375 -9.671875 9.960938 -8.734375 10.359375 -8.453125 C 10.765625 -8.179688 11.382812 -8.179688 12.21875 -8.453125 C 13.050781 -8.734375 13.878906 -9.265625 14.703125 -10.046875 C 15.535156 -10.828125 16.234375 -11.539062 16.796875 -12.1875 C 17.367188 -12.832031 17.851562 -13.039062 18.25 -12.8125 Z M 18.25 -12.8125"/></g><g id="g"><path d="M 19.921875 -12.5625 C 20.191406 -12.21875 19.859375 -11.601562 18.921875 -10.71875 C 17.984375 -9.832031 16.984375 -9.085938 15.921875 -8.484375 C 14.867188 -7.878906 13.644531 -7.273438 12.25 -6.671875 C 11.332031 -6.265625 10.351562 -6.128906 9.3125 -6.265625 C 8.269531 -6.398438 7.75 -7.03125 7.75 -8.15625 C 7.75 -9.28125 8.007812 -10.394531 8.53125 -11.5 C 9.050781 -12.632812 9.160156 -13.21875 8.859375 -13.25 C 8.566406 -13.289062 7.960938 -13.019531 7.046875 -12.4375 C 4.648438 -10.851562 2.421875 -9.046875 0.359375 -7.015625 C -0.203125 -6.347656 -0.910156 -5.976562 -1.765625 -5.90625 C -2.203125 -5.90625 -2.539062 -6.046875 -2.78125 -6.328125 C -3.019531 -6.609375 -3.050781 -6.90625 -2.875 -7.21875 C -1.394531 -9.957031 0.0976562 -12.660156 1.609375 -15.328125 C 1.941406 -15.878906 2.445312 -16.222656 3.125 -16.359375 C 3.40625 -16.410156 3.664062 -16.320312 3.90625 -16.09375 C 4.15625 -15.863281 4.28125 -15.609375 4.28125 -15.328125 C 4.25 -15.054688 4.140625 -14.738281 3.953125 -14.375 C 3.867188 -14.15625 3.785156 -13.941406 3.703125 -13.734375 C 3.628906 -13.535156 3.601562 -13.367188 3.625 -13.234375 C 3.65625 -13.097656 3.765625 -13.054688 3.953125 -13.109375 C 4.203125 -13.242188 4.453125 -13.382812 4.703125 -13.53125 C 5.335938 -13.90625 5.953125 -14.257812 6.546875 -14.59375 C 7.066406 -14.894531 7.609375 -15.160156 8.171875 -15.390625 C 8.742188 -15.628906 9.34375 -15.789062 9.96875 -15.875 C 10.96875 -15.945312 11.675781 -15.722656 12.09375 -15.203125 C 12.519531 -14.679688 12.570312 -13.957031 12.25 -13.03125 C 11.914062 -12.195312 11.566406 -11.367188 11.203125 -10.546875 C 10.742188 -9.773438 10.664062 -9.1875 10.96875 -8.78125 C 11.269531 -8.375 12.671875 -8.835938 15.171875 -10.171875 L 17.0625 -11.265625 C 18.84375 -12.410156 19.796875 -12.84375 19.921875 -12.5625 Z M 19.921875 -12.5625"/></g><g id="h"><path d="M 22.34375 -13.25 C 22.695312 -13.15625 22.878906 -13.023438 22.890625 -12.859375 C 22.910156 -12.691406 22.921875 -12.609375 22.921875 -12.609375 C 22.515625 -11.898438 22.050781 -11.253906 21.53125 -10.671875 C 20.34375 -9.347656 18.960938 -8.289062 17.390625 -7.5 C 16.617188 -7.0625 15.742188 -6.828125 14.765625 -6.796875 C 12.515625 -6.765625 11.484375 -7.851562 11.671875 -10.0625 C 11.753906 -10.53125 11.863281 -10.992188 12 -11.453125 C 12.082031 -11.671875 12.140625 -11.890625 12.171875 -12.109375 C 12.390625 -12.910156 12.453125 -13.359375 12.359375 -13.453125 C 12.273438 -13.546875 12.015625 -13.3125 11.578125 -12.75 C 11.453125 -12.65625 11.34375 -12.550781 11.25 -12.4375 C 10.570312 -11.625 9.882812 -10.832031 9.1875 -10.0625 C 7.894531 -8.582031 6.414062 -7.34375 4.75 -6.34375 C 3.757812 -5.75 2.710938 -5.4375 1.609375 -5.40625 C -0.203125 -5.320312 -1.21875 -6.15625 -1.4375 -7.90625 C -1.519531 -8.601562 -1.484375 -9.296875 -1.328125 -9.984375 C -0.585938 -12.835938 0.882812 -15.007812 3.09375 -16.5 C 5.3125 -18 7.84375 -18.53125 10.6875 -18.09375 C 11.5 -17.851562 12.085938 -18.070312 12.453125 -18.75 C 12.609375 -19 12.757812 -19.257812 12.90625 -19.53125 C 13.675781 -20.851562 14.429688 -22.175781 15.171875 -23.5 C 16.566406 -26.050781 17.96875 -28.617188 19.375 -31.203125 C 20.507812 -33.234375 21.648438 -35.28125 22.796875 -37.34375 C 23.128906 -37.976562 23.5 -38.585938 23.90625 -39.171875 C 24.09375 -39.460938 24.320312 -39.632812 24.59375 -39.6875 C 24.875 -39.75 25.164062 -39.78125 25.46875 -39.78125 C 25.53125 -39.78125 25.601562 -39.78125 25.6875 -39.78125 C 26.019531 -39.78125 26.285156 -39.695312 26.484375 -39.53125 C 26.691406 -39.363281 26.738281 -39.132812 26.625 -38.84375 C 26.40625 -38.144531 26.144531 -37.476562 25.84375 -36.84375 C 24.300781 -33.75 22.84375 -30.617188 21.46875 -27.453125 C 20.101562 -24.296875 18.757812 -21.117188 17.4375 -17.921875 C 17 -16.804688 16.554688 -15.695312 16.109375 -14.59375 C 15.546875 -13.300781 15.082031 -11.976562 14.71875 -10.625 C 14.613281 -10.320312 14.5625 -10.019531 14.5625 -9.71875 C 14.5625 -9.425781 14.707031 -9.171875 15 -8.953125 C 15.175781 -8.835938 15.363281 -8.816406 15.5625 -8.890625 C 15.769531 -8.972656 15.992188 -9.0625 16.234375 -9.15625 C 16.265625 -9.207031 16.3125 -9.25 16.375 -9.28125 C 17.96875 -10.207031 19.429688 -11.316406 20.765625 -12.609375 C 20.972656 -12.828125 21.195312 -13.007812 21.4375 -13.15625 C 21.6875 -13.3125 21.988281 -13.34375 22.34375 -13.25 Z M 9.90625 -14.875 C 10.09375 -15.175781 10.148438 -15.460938 10.078125 -15.734375 C 10.003906 -16.015625 9.816406 -16.222656 9.515625 -16.359375 C 8.890625 -16.691406 8.222656 -16.734375 7.515625 -16.484375 C 5.796875 -15.960938 4.351562 -14.972656 3.1875 -13.515625 C 2.019531 -12.054688 1.382812 -10.445312 1.28125 -8.6875 C 1.3125 -8.601562 1.328125 -8.539062 1.328125 -8.5 C 1.328125 -8.351562 1.328125 -8.203125 1.328125 -8.046875 C 1.484375 -7.242188 1.984375 -7.085938 2.828125 -7.578125 C 3.671875 -8.078125 4.617188 -8.878906 5.671875 -9.984375 C 6.722656 -11.097656 7.660156 -12.148438 8.484375 -13.140625 C 9.316406 -14.140625 9.789062 -14.71875 9.90625 -14.875 Z M 9.90625 -14.875"/></g><g id="i"><path d="M 12.0625 -15.453125 C 11.914062 -14.296875 11.375 -13.539062 10.4375 -13.1875 C 9.5 -12.832031 9.191406 -13.289062 9.515625 -14.5625 C 9.847656 -15.84375 9.273438 -16.164062 7.796875 -15.53125 C 6.316406 -14.90625 5.101562 -14.113281 4.15625 -13.15625 C 2.675781 -11.644531 1.363281 -10.019531 0.21875 -8.28125 C 0.101562 -8.125 0.015625 -8 -0.046875 -7.90625 C -0.378906 -7.414062 -0.71875 -6.953125 -1.0625 -6.515625 C -1.28125 -6.210938 -1.535156 -6.023438 -1.828125 -5.953125 C -2.117188 -5.878906 -2.414062 -5.863281 -2.71875 -5.90625 C -3 -5.945312 -3.210938 -6.054688 -3.359375 -6.234375 C -3.515625 -6.421875 -3.535156 -6.640625 -3.421875 -6.890625 C -3.234375 -7.347656 -3.015625 -7.8125 -2.765625 -8.28125 C -1.253906 -11.082031 0.28125 -13.890625 1.84375 -16.703125 C 1.875 -16.734375 1.890625 -16.769531 1.890625 -16.8125 C 2.109375 -17.25 2.367188 -17.648438 2.671875 -18.015625 C 3.003906 -18.378906 3.390625 -18.53125 3.828125 -18.46875 C 4.265625 -18.40625 4.554688 -18.144531 4.703125 -17.6875 C 4.890625 -17.101562 5.050781 -16.769531 5.1875 -16.6875 C 5.320312 -16.613281 5.625 -16.671875 6.09375 -16.859375 C 7.09375 -17.222656 8.070312 -17.476562 9.03125 -17.625 C 9.988281 -17.78125 10.769531 -17.742188 11.375 -17.515625 C 11.988281 -17.296875 12.21875 -16.609375 12.0625 -15.453125 Z M 12.0625 -15.453125"/></g></defs><path fill="#FFF" d="M-37.5 -37.5H412.5V412.5H-37.5z"/><path fill="#FFF" d="M-37.5 -37.5H412.5V412.5H-37.5z"/><path fill="#2B2B2B" d="M-37.5 -37.5H412.5V412.5H-37.5z"/><g fill="#8F7E70" fill-opacity=".302"><use x="107.718" y="342.464" xmlns:xlink="http://www.w3.org/1999/xlink" xlink:href="#a" xlink:type="simple" xlink:actuate="onLoad" xlink:show="embed"/></g><g fill="#8F7E70" fill-opacity=".502"><use x="93.786" y="328.532" xmlns:xlink="http://www.w3.org/1999/xlink" xlink:href="#a" xlink:type="simple" xlink:actuate="onLoad" xlink:show="embed"/></g><g fill="#8F7E70"><use x="79.854" y="314.6" xmlns:xlink="http://www.w3.org/1999/xlink" xlink:href="#a" xlink:type="simple" xlink:actuate="onLoad" xlink:show="embed"/></g><path fill="#2B2B2B" d="M 41.9375 217.503906 L 344.144531 217.503906 L 344.144531 259.503906 L 41.9375 259.503906 Z M 41.9375 217.503906"/><g fill="#D9D9D9"><use x="61.906" y="253.176" xmlns:xlink="http://www.w3.org/1999/xlink" xlink:href="#b" xlink:type="simple" xlink:actuate="onLoad" xlink:show="embed"/></g><g fill="#D9D9D9"><use x="147.262" y="253.176" xmlns:xlink="http://www.w3.org/1999/xlink" xlink:href="#c" xlink:type="simple" xlink:actuate="onLoad" xlink:show="embed"/></g><g fill="#D9D9D9"><use x="165.43" y="253.176" xmlns:xlink="http://www.w3.org/1999/xlink" xlink:href="#d" xlink:type="simple" xlink:actuate="onLoad" xlink:show="embed"/></g><g fill="#D9D9D9"><use x="185.687" y="253.176" xmlns:xlink="http://www.w3.org/1999/xlink" xlink:href="#e" xlink:type="simple" xlink:actuate="onLoad" xlink:show="embed"/></g><g fill="#D9D9D9"><use x="207.252" y="253.176" xmlns:xlink="http://www.w3.org/1999/xlink" xlink:href="#f" xlink:type="simple" xlink:actuate="onLoad" xlink:show="embed"/></g><g fill="#D9D9D9"><use x="229.546" y="253.176" xmlns:xlink="http://www.w3.org/1999/xlink" xlink:href="#g" xlink:type="simple" xlink:actuate="onLoad" xlink:show="embed"/></g><g fill="#D9D9D9"><use x="253.6" y="253.176" xmlns:xlink="http://www.w3.org/1999/xlink" xlink:href="#h" xlink:type="simple" xlink:actuate="onLoad" xlink:show="embed"/></g><g fill="#D9D9D9"><use x="280.246" y="253.176" xmlns:xlink="http://www.w3.org/1999/xlink" xlink:href="#d" xlink:type="simple" xlink:actuate="onLoad" xlink:show="embed"/></g><g fill="#D9D9D9"><use x="300.503" y="253.176" xmlns:xlink="http://www.w3.org/1999/xlink" xlink:href="#i" xlink:type="simple" xlink:actuate="onLoad" xlink:show="embed"/></g></svg>